<svg width="0" height="0" class="hidden">
  <symbol fill="none" xmlns="http://www.w3.org/2000/svg" viewBox="0 0 230 47" id="logo">
    <g filter="url(#filter0_d)">
      <path d="M21.18 25.232c-.264 2.256-1.099 4-2.505 5.23-1.397 1.22-3.257 1.831-5.581 1.831-2.52 0-4.541-.903-6.065-2.71-1.513-1.807-2.27-4.224-2.27-7.251v-2.05c0-1.983.351-3.726 1.054-5.23.713-1.504 1.72-2.656 3.018-3.457 1.299-.81 2.803-1.216 4.512-1.216 2.265 0 4.082.635 5.449 1.904 1.367 1.26 2.163 3.008 2.388 5.244h-2.828c-.244-1.699-.776-2.93-1.596-3.691-.81-.762-1.948-1.143-3.413-1.143-1.797 0-3.208.664-4.234 1.992-1.015 1.329-1.523 3.218-1.523 5.67v2.065c0 2.314.483 4.155 1.45 5.522.967 1.368 2.32 2.051 4.058 2.051 1.562 0 2.758-.351 3.589-1.054.84-.713 1.396-1.949 1.67-3.707h2.827zm5.71-1.303c0-1.553.302-2.95.908-4.19.615-1.24 1.465-2.197 2.549-2.87 1.093-.675 2.338-1.012 3.735-1.012 2.158 0 3.901.748 5.23 2.242 1.337 1.494 2.006 3.481 2.006 5.962v.19c0 1.543-.297 2.93-.893 4.16-.586 1.22-1.43 2.173-2.534 2.857-1.094.683-2.354 1.025-3.78 1.025-2.148 0-3.891-.747-5.23-2.241-1.327-1.494-1.991-3.472-1.991-5.933v-.19zm2.724.322c0 1.758.405 3.169 1.216 4.233.82 1.065 1.914 1.597 3.281 1.597 1.377 0 2.471-.537 3.282-1.611.81-1.084 1.215-2.598 1.215-4.541 0-1.739-.415-3.145-1.245-4.219-.82-1.084-1.914-1.626-3.281-1.626-1.338 0-2.417.532-3.237 1.597-.82 1.064-1.23 2.588-1.23 4.57zm17.444-.308c0-2.431.576-4.384 1.728-5.859 1.152-1.484 2.661-2.227 4.526-2.227 1.856 0 3.326.635 4.41 1.905V9.5h2.71V32h-2.49l-.132-1.7c-1.084 1.329-2.593 1.993-4.527 1.993-1.836 0-3.335-.752-4.497-2.256-1.152-1.504-1.728-3.467-1.728-5.889v-.205zm2.71.308c0 1.797.37 3.203 1.113 4.219.742 1.015 1.767 1.523 3.076 1.523 1.719 0 2.974-.771 3.765-2.314v-7.28c-.81-1.495-2.056-2.242-3.736-2.242-1.328 0-2.363.513-3.105 1.538-.742 1.026-1.113 2.544-1.113 4.556zM70.595 32h-2.71V16.15h2.71V32zm-2.93-20.054c0-.44.132-.81.395-1.113.274-.303.674-.454 1.202-.454.527 0 .927.151 1.2.454a1.6 1.6 0 01.411 1.113c0 .44-.137.806-.41 1.099-.273.293-.674.44-1.201.44-.528 0-.928-.147-1.201-.44-.264-.293-.396-.66-.396-1.099zm12.844 4.204l.088 1.993c1.21-1.524 2.793-2.286 4.746-2.286 3.35 0 5.039 1.89 5.068 5.67V32h-2.71V21.512c-.01-1.143-.273-1.988-.79-2.535-.509-.546-1.305-.82-2.389-.82-.878 0-1.65.235-2.314.703a4.773 4.773 0 00-1.553 1.846V32h-2.71V16.15h2.564zm16.344 7.793c0-2.47.572-4.433 1.714-5.888 1.143-1.465 2.657-2.198 4.541-2.198 1.934 0 3.443.684 4.527 2.051l.132-1.758h2.475v15.47c0 2.05-.61 3.666-1.831 4.848-1.211 1.181-2.842 1.772-4.892 1.772a8.153 8.153 0 01-3.355-.732c-1.094-.489-1.929-1.157-2.505-2.007l1.406-1.626c1.163 1.435 2.583 2.153 4.263 2.153 1.318 0 2.344-.37 3.076-1.113.742-.742 1.114-1.787 1.114-3.135v-1.362c-1.084 1.25-2.564 1.875-4.439 1.875-1.855 0-3.36-.747-4.512-2.241-1.142-1.494-1.713-3.53-1.713-6.109zm2.725.308c0 1.787.366 3.193 1.099 4.219.732 1.015 1.758 1.523 3.076 1.523 1.709 0 2.964-.776 3.765-2.329v-7.236c-.83-1.514-2.076-2.27-3.736-2.27-1.318 0-2.348.512-3.091 1.537-.742 1.026-1.113 2.544-1.113 4.556z" fill="#222"></path>
      <path d="M139.987 26.434h-8.935L129.045 32h-2.9l8.144-21.328h2.461L144.909 32h-2.886l-2.036-5.566zm-8.086-2.315h7.251l-3.632-9.975-3.619 9.975zm17.795-.176c0-2.431.576-4.384 1.729-5.859 1.152-1.484 2.661-2.227 4.526-2.227 1.856 0 3.325.635 4.409 1.905V9.5h2.71V32h-2.49l-.132-1.7c-1.084 1.329-2.593 1.993-4.526 1.993-1.836 0-3.335-.752-4.497-2.256-1.153-1.504-1.729-3.467-1.729-5.889v-.205zm2.71.308c0 1.797.371 3.203 1.114 4.219.742 1.015 1.767 1.523 3.076 1.523 1.718 0 2.973-.771 3.764-2.314v-7.28c-.81-1.495-2.055-2.242-3.735-2.242-1.328 0-2.363.513-3.105 1.538-.743 1.026-1.114 2.544-1.114 4.556zm17.224-.308c0-2.431.576-4.384 1.728-5.859 1.153-1.484 2.662-2.227 4.527-2.227 1.855 0 3.325.635 4.409 1.905V9.5h2.71V32h-2.49l-.132-1.7c-1.084 1.329-2.593 1.993-4.527 1.993-1.835 0-3.334-.752-4.497-2.256-1.152-1.504-1.728-3.467-1.728-5.889v-.205zm2.71.308c0 1.797.371 3.203 1.113 4.219.742 1.015 1.768 1.523 3.076 1.523 1.719 0 2.974-.771 3.765-2.314v-7.28c-.811-1.495-2.056-2.242-3.735-2.242-1.329 0-2.364.513-3.106 1.538-.742 1.026-1.113 2.544-1.113 4.556zM193.167 32h-2.71V16.15h2.71V32zm-2.93-20.054c0-.44.132-.81.396-1.113.273-.303.674-.454 1.201-.454s.928.151 1.201.454c.274.303.41.674.41 1.113 0 .44-.136.806-.41 1.099-.273.293-.674.44-1.201.44s-.928-.147-1.201-.44c-.264-.293-.396-.66-.396-1.099zm16.638 18.135c.967 0 1.812-.293 2.534-.879.723-.586 1.123-1.318 1.201-2.197h2.564c-.049.908-.362 1.772-.938 2.593-.576.82-1.347 1.474-2.314 1.963a6.614 6.614 0 01-3.047.732c-2.158 0-3.877-.718-5.156-2.153-1.27-1.446-1.905-3.418-1.905-5.918v-.454c0-1.543.284-2.916.85-4.117.566-1.2 1.377-2.133 2.432-2.797 1.064-.665 2.319-.997 3.764-.997 1.778 0 3.252.533 4.424 1.597 1.182 1.065 1.812 2.446 1.89 4.146h-2.564c-.078-1.026-.468-1.866-1.172-2.52-.693-.664-1.552-.996-2.578-.996-1.377 0-2.446.498-3.208 1.494-.752.986-1.128 2.417-1.128 4.292v.513c0 1.826.376 3.232 1.128 4.219.752.986 1.827 1.48 3.223 1.48zm16.022-17.768v3.837h2.959v2.095h-2.959v9.83c0 .634.132 1.113.396 1.435.264.312.713.468 1.348.468.312 0 .742-.058 1.289-.175V32a7.862 7.862 0 01-2.08.293c-1.211 0-2.124-.366-2.74-1.099-.615-.732-.922-1.772-.922-3.12v-9.829h-2.886V16.15h2.886v-3.837h2.709z" fill="#49A6E9"></path>
    </g>
    <defs>
      <filter id="filter0_d" x=".759" y="9.5" width="229.171" height="36.74" filterUnits="userSpaceOnUse" color-interpolation-filters="sRGB">
        <feFlood flood-opacity="0" result="BackgroundImageFix"></feFlood>
        <feColorMatrix in="SourceAlpha" values="0 0 0 0 0 0 0 0 0 0 0 0 0 0 0 0 0 0 127 0"></feColorMatrix>
        <feOffset dy="4"></feOffset>
        <feGaussianBlur stdDeviation="2"></feGaussianBlur>
        <feColorMatrix values="0 0 0 0 0 0 0 0 0 0 0 0 0 0 0 0 0 0 0.25 0"></feColorMatrix>
        <feBlend in2="BackgroundImageFix" result="effect1_dropShadow"></feBlend>
        <feBlend in="SourceGraphic" in2="effect1_dropShadow" result="shape"></feBlend>
      </filter>
    </defs>
  </symbol>
</svg>